<?xml version="1.0" encoding="utf-8"?>
<svg viewBox="0 0 318 318" width="318px" height="318px" xmlns="http://www.w3.org/2000/svg">
  <defs>
    <mask id="b" fill="#fff" height="318" width="318" x="0" y="0">
      <path d="M0 0h318v318H0z" transform="matrix(1, 0, 0, 1, 0, 0)"/>
    </mask>
  </defs>
  <g fill="none" fill-rule="evenodd">
    <path d="M0 0h318v318H0z" transform="matrix(1, 0, 0, 1, 0, 0)" mask="url(#b)" stroke-width="8" style="stroke: rgb(255, 255, 255);"/>
    <g>
      <g>
        <g>
          <path d="M 79.8 87.2 L 43.6 109.7 L 79.8 132.6 L 76.1 137.2 L 38.4 113.6 L 38.4 105.7 L 76.5 82.1 M 265.8 104.8 L 265.8 112.6 L 228.1 136.2 L 224.4 131.3 L 260.5 108.7 L 224.4 86 L 227.6 81.1" fill="#fff" style=""/>
          <path d="M 37.692 210.556 C 31.877 210.556 28.047 213.676 28.047 217.837 C 28.047 221.525 30.316 223.983 35.47 225.401 C 40.15 226.725 41.143 227.387 41.143 229.467 C 41.143 231.358 39.394 232.493 36.699 232.493 C 34.146 232.493 31.829 231.5 29.891 230.035 L 26.865 233.439 C 29.182 235.519 32.538 236.984 36.841 236.984 C 42.561 236.984 47.384 234.242 47.384 229.042 C 47.384 224.598 44.5 222.517 39.394 221.146 C 35.139 219.964 34.146 219.208 34.146 217.553 C 34.146 216.04 35.517 215.048 37.928 215.048 C 40.15 215.048 42.136 215.757 44.216 217.08 L 46.58 213.535 C 44.216 211.691 41.285 210.556 37.692 210.556 Z M 64.498 231.217 L 66.626 235.093 C 64.829 236.37 62.56 236.984 60.338 236.984 C 55.421 236.937 52.821 234.148 52.821 228.805 L 52.821 215.615 L 48.897 215.615 L 48.897 211.265 L 52.821 211.265 L 52.821 205.734 L 58.872 205.025 L 58.872 211.265 L 64.687 211.265 L 64.073 215.615 L 58.872 215.615 L 58.872 228.664 C 58.872 231.122 59.676 232.115 61.52 232.115 C 62.465 232.115 63.411 231.831 64.498 231.217 Z M 90.265 211.265 L 82.133 236.37 C 80.242 242.232 76.554 246.015 69.132 246.582 L 68.517 242.185 C 73.481 241.429 75.089 239.821 76.507 236.275 L 74.427 236.275 L 66.484 211.265 L 72.914 211.265 L 78.351 232.257 L 84.024 211.265 L 90.265 211.265 Z M 99.862 236.984 C 101.246 236.984 102.615 236.694 103.881 236.133 L 102.604 231.878 C 102.179 232.02 101.753 232.115 101.186 232.115 C 100.193 232.115 99.768 231.548 99.768 230.366 L 99.768 200.58 L 93.716 201.242 L 93.716 230.555 C 93.716 234.668 96.033 236.984 99.862 236.984 Z M 128.418 223.179 C 128.418 223.983 128.324 224.976 128.276 225.638 L 112.58 225.638 C 113.005 230.744 115.417 232.399 118.726 232.399 C 120.948 232.399 122.792 231.689 124.967 230.176 L 127.473 233.628 C 125.014 235.613 121.988 236.984 118.206 236.984 C 110.452 236.984 106.292 231.831 106.292 223.936 C 106.292 216.324 110.311 210.556 117.402 210.556 C 124.399 210.556 128.418 215.284 128.418 223.179 Z M 122.414 221.714 L 122.414 221.43 C 122.414 217.317 120.948 214.858 117.544 214.858 C 114.707 214.858 112.911 216.75 112.58 221.714 L 122.414 221.714 Z M 148.842 200.58 L 154.894 201.242 L 154.894 236.275 L 149.551 236.275 L 149.126 233.108 C 147.613 235.377 145.202 236.984 141.987 236.984 C 135.746 236.984 132.484 231.737 132.484 223.794 C 132.484 216.088 136.361 210.556 142.554 210.556 C 145.202 210.556 147.282 211.691 148.842 213.251 L 148.842 200.58 Z M 143.689 232.399 C 145.911 232.399 147.424 231.311 148.842 229.184 L 148.842 217.742 C 147.518 216.135 146.1 215.095 144.067 215.095 C 140.947 215.095 138.866 217.742 138.866 223.747 C 138.866 230.176 140.71 232.399 143.689 232.399 Z M 37.897 257.834 C 30.71 257.834 26.219 263.271 26.219 271.261 C 26.219 279.251 30.71 284.262 37.944 284.262 C 41.159 284.262 43.759 283.222 46.028 281.378 L 43.334 277.549 C 41.49 278.731 40.166 279.346 38.275 279.346 C 34.871 279.346 32.649 277.218 32.649 271.166 C 32.649 265.162 34.776 262.609 38.275 262.609 C 40.166 262.609 41.679 263.176 43.334 264.406 L 46.028 260.765 C 43.664 258.732 41.159 257.834 37.897 257.834 Z M 60.637 257.834 C 68.013 257.834 72.362 262.846 72.362 271.025 C 72.362 278.92 67.965 284.262 60.59 284.262 C 53.215 284.262 48.818 279.251 48.818 271.025 C 48.818 263.176 53.215 257.834 60.637 257.834 Z M 60.637 262.42 C 57.091 262.42 55.2 265.115 55.2 271.025 C 55.2 277.029 57.044 279.676 60.59 279.676 C 64.136 279.676 65.98 276.982 65.98 271.025 C 65.98 265.068 64.136 262.42 60.637 262.42 Z M 104.558 257.834 C 101.249 257.834 98.932 259.441 97.041 262.042 C 96.096 259.394 93.921 257.834 90.99 257.834 C 87.822 257.834 85.553 259.3 83.756 261.805 L 83.283 258.543 L 78.036 258.543 L 78.036 283.553 L 84.087 283.553 L 84.087 266.155 C 85.458 263.838 86.735 262.373 88.862 262.373 C 90.328 262.373 91.604 263.271 91.604 266.391 L 91.604 283.553 L 97.656 283.553 L 97.656 266.155 C 99.027 263.838 100.303 262.373 102.384 262.373 C 103.897 262.373 105.126 263.271 105.126 266.391 L 105.126 283.553 L 111.177 283.553 L 111.177 265.446 C 111.177 260.718 108.53 257.834 104.558 257.834 Z M 131.176 257.834 C 137.7 257.834 140.442 262.987 140.442 270.977 C 140.442 278.636 136.897 284.262 130.561 284.262 C 128.008 284.262 125.834 283.364 124.273 281.52 L 124.273 293.198 L 118.222 293.86 L 118.222 258.543 L 123.517 258.543 L 123.848 261.616 C 125.834 259.016 128.481 257.834 131.176 257.834 Z M 128.859 279.629 C 132.169 279.629 134.107 277.076 134.107 271.025 C 134.107 264.689 132.405 262.373 129.379 262.373 C 127.252 262.373 125.455 263.838 124.273 265.777 L 124.273 277.029 C 125.455 278.778 126.968 279.629 128.859 279.629 Z M 156.611 257.834 C 163.987 257.834 168.336 262.846 168.336 271.025 C 168.336 278.92 163.94 284.262 156.564 284.262 C 149.189 284.262 144.792 279.251 144.792 271.025 C 144.792 263.176 149.189 257.834 156.611 257.834 Z M 156.611 262.42 C 153.066 262.42 151.175 265.115 151.175 271.025 C 151.175 277.029 153.018 279.676 156.564 279.676 C 160.11 279.676 161.954 276.982 161.954 271.025 C 161.954 265.068 160.11 262.42 156.611 262.42 Z M 187.342 257.834 C 184.175 257.834 181.669 259.3 179.73 261.805 L 179.258 258.543 L 174.01 258.543 L 174.01 283.553 L 180.061 283.553 L 180.061 266.155 C 181.527 263.838 183.134 262.373 185.309 262.373 C 187.2 262.373 188.382 263.271 188.382 266.391 L 188.382 283.553 L 194.434 283.553 L 194.434 265.446 C 194.434 260.671 191.834 257.834 187.342 257.834 Z M 221.997 270.457 C 221.997 271.261 221.902 272.254 221.855 272.916 L 206.159 272.916 C 206.584 278.022 208.995 279.676 212.305 279.676 C 214.527 279.676 216.371 278.967 218.546 277.454 L 221.051 280.906 C 218.593 282.891 215.567 284.262 211.785 284.262 C 204.031 284.262 199.871 279.109 199.871 271.214 C 199.871 263.602 203.889 257.834 210.981 257.834 C 217.978 257.834 221.997 262.562 221.997 270.457 Z M 215.993 268.992 L 215.993 268.708 C 215.993 264.595 214.527 262.136 211.123 262.136 C 208.286 262.136 206.49 264.027 206.159 268.992 L 215.993 268.992 Z M 240.766 257.834 C 237.599 257.834 235.093 259.3 233.154 261.805 L 232.682 258.543 L 227.434 258.543 L 227.434 283.553 L 233.485 283.553 L 233.485 266.155 C 234.951 263.838 236.558 262.373 238.733 262.373 C 240.624 262.373 241.806 263.271 241.806 266.391 L 241.806 283.553 L 247.858 283.553 L 247.858 265.446 C 247.858 260.671 245.258 257.834 240.766 257.834 Z M 267.1 278.494 C 266.013 279.109 265.067 279.393 264.122 279.393 C 262.278 279.393 261.474 278.4 261.474 275.941 L 261.474 262.893 L 266.675 262.893 L 267.289 258.543 L 261.474 258.543 L 261.474 252.303 L 255.422 253.012 L 255.422 258.543 L 251.498 258.543 L 251.498 262.893 L 255.422 262.893 L 255.422 276.083 C 255.422 281.426 258.023 284.215 262.94 284.262 C 265.162 284.262 267.431 283.648 269.228 282.371 L 267.1 278.494 Z M 280.527 257.834 C 274.712 257.834 270.882 260.954 270.882 265.115 C 270.882 268.803 273.152 271.261 278.305 272.679 C 282.985 274.003 283.978 274.665 283.978 276.745 C 283.978 278.636 282.229 279.771 279.534 279.771 C 276.981 279.771 274.664 278.778 272.726 277.313 L 269.7 280.717 C 272.017 282.797 275.374 284.262 279.676 284.262 C 285.397 284.262 290.219 281.52 290.219 276.32 C 290.219 271.876 287.335 269.795 282.229 268.424 C 277.974 267.242 276.981 266.486 276.981 264.831 C 276.981 263.318 278.352 262.325 280.763 262.325 C 282.985 262.325 284.971 263.035 287.051 264.358 L 289.415 260.813 C 287.051 258.969 284.12 257.834 280.527 257.834 Z" fill="#fff" style=""/>
        </g>
      </g>
    </g>
    <text transform="translate(38 44)" style="fill: rgb(0, 0, 0); font-family: AppleColorEmoji, &quot;Apple Color Emoji&quot;; font-size: 100px; letter-spacing: 0.5px; stroke: rgb(255, 255, 255); white-space: pre;" x="70" y="100">💅</text>
  </g>
</svg>